inDegrees=no
num_controls=7
num_derivatives=13
num_iterations=133
num_multipliers=7
num_parameters=0
num_slacks=7
num_states=26
objective=0.545656
objective_accelerations=0.041392
objective_balance=0.003784
objective_effort=0.040263
objective_height=0.450787
objective_ligament=0.009430
solver_duration=1421.895377
status=Solve_Succeeded
success=true
DataType=double
version=3
OpenSimVersion=4.5
endheader
time	/jointset/ground_pelvis/pelvis_tilt/value	/jointset/ground_pelvis/pelvis_tx/value	/jointset/ground_pelvis/pelvis_ty/value	/jointset/hip_r/hip_flexion_r/value	/jointset/hip_r/hip_adduction_r/value	/jointset/hip_r/hip_rotation_r/value	/jointset/back/lumbar_extension/value	/jointset/patellofemoral_r/patellar_flexion_r/value	/jointset/knee_r/knee_flexion_r/value	/jointset/knee_r/knee_adduction_r/value	/jointset/knee_r/knee_rotation_r/value	/jointset/ankle_r/ankle_angle_r/value	/jointset/subtalar_r/subtalar_angle_r/value	/jointset/ground_pelvis/pelvis_tilt/speed	/jointset/ground_pelvis/pelvis_tx/speed	/jointset/ground_pelvis/pelvis_ty/speed	/jointset/hip_r/hip_flexion_r/speed	/jointset/hip_r/hip_adduction_r/speed	/jointset/hip_r/hip_rotation_r/speed	/jointset/back/lumbar_extension/speed	/jointset/patellofemoral_r/patellar_flexion_r/speed	/jointset/knee_r/knee_flexion_r/speed	/jointset/knee_r/knee_adduction_r/speed	/jointset/knee_r/knee_rotation_r/speed	/jointset/ankle_r/ankle_angle_r/speed	/jointset/subtalar_r/subtalar_angle_r/speed	/forceset/tau_hip_flexion_r	/forceset/tau_hip_adduction_r	/forceset/tau_hip_rotation_r	/forceset/tau_knee_flexion_r	/forceset/tau_ankle_angle_r	/forceset/tau_subtalar_angle_r	/forceset/tau_lumbar_extension	lambda_cid13_p0	lambda_cid14_p0	lambda_cid14_p1	lambda_cid14_p2	lambda_cid14_p3	lambda_cid14_p4	lambda_cid14_p5	/jointset/ground_pelvis/pelvis_tilt/accel	/jointset/ground_pelvis/pelvis_tx/accel	/jointset/ground_pelvis/pelvis_ty/accel	/jointset/hip_r/hip_flexion_r/accel	/jointset/hip_r/hip_adduction_r/accel	/jointset/hip_r/hip_rotation_r/accel	/jointset/back/lumbar_extension/accel	/jointset/patellofemoral_r/patellar_flexion_r/accel	/jointset/knee_r/knee_flexion_r/accel	/jointset/knee_r/knee_adduction_r/accel	/jointset/knee_r/knee_rotation_r/accel	/jointset/ankle_r/ankle_angle_r/accel	/jointset/subtalar_r/subtalar_angle_r/accel	gamma_cid13_p0	gamma_cid14_p0	gamma_cid14_p1	gamma_cid14_p2	gamma_cid14_p3	gamma_cid14_p4	gamma_cid14_p5
1	-0.3830576354634769	-0.0410543793944168	0.706423490068644	1.441635073378447	-0.2306778752315776	-0.06405006903564631	-0.4363193741293469	1.162870974846214	1.162870974846201	-0.0299775977588849	0.174505919909395	0.2927744950926767	0.06332998966394467	-0.001231216260995597	0.002800678728080055	0.01296272758211013	-0.0350651243043875	0.001923421434302565	-0.01112368429985813	-7.980966251279058e-05	-0.04472576742546053	-0.04472576742546047	-0.001413515856700803	-5.943794491424678e-05	-0.00946071913379134	7.385426825595102e-06	-0.3278726326736908	0.01018791194425983	0.01227826874641945	-0.3982573331234882	0.05206321849967999	0.001842485206761852	0.3233656704892344	-2.901078851379081	-31.67994875027596	-3.864903010898034	0.06887162097571935	14.3626825722666	-782.4378500112384	55.3426058715993	1.636994497706743	0.185807471624667	1.419326514163294	-5.097912913126166	0.05824109360553765	-0.6517379876971897	-0.03129793753073493	-4.285181003400171	-4.285181003400186	0.4429839993145682	0.001973028545917309	-0.9844334126950305	-0.205981528469849	7.117663413550074e-10	6.562880381504438e-10	7.309996121468605e-09	6.825939783098338e-09	5.180544024505577e-10	-2.928710408392674e-09	6.375909018126232e-09
1.01	-0.3829885849610035	-0.04101705808211468	0.7066239581019764	1.441030188252666	-0.2306557080798399	-0.06419334927286462	-0.4363209931019262	1.162209686596562	1.162209686596553	-0.02996918846512192	0.1745051420068076	0.2926307170560247	0.06331979871560203	0.01506342519572366	0.004669976185217957	0.02713129979549838	-0.08593900426706648	0.002506194082445485	-0.01753590442138075	-0.0002494512011482628	-0.08753106355076633	-0.0875310635507663	0.003099706832091766	-8.710889755491018e-05	-0.01928997607382605	-0.002049218592537418	-0.3278841377375888	0.01022105906440188	0.01228264455745999	-0.3980133528865485	0.05211255613742677	0.001818784330176394	0.3234187556781596	-2.926810935978966	-31.65723877910988	-3.870138644228169	0.06847124603778348	14.27365518276031	-782.3643486523458	55.30856211088751	1.629015690855445	0.1884497377799602	1.415684559230618	-5.086190710395829	0.05772586323148114	-0.6364956595160308	-0.01061721420164065	-4.278081245745523	-4.27808124574552	0.456143519270008	-0.00377916064250423	-0.9814355279658046	-0.206042197258	8.573989582724875e-10	1.093161330337924e-09	1.663856807856365e-08	1.28224618036431e-08	-5.872025537147707e-11	-5.584994522277108e-09	1.290841180188192e-08
1.02	-0.3827559246997226	-0.04096085202423685	0.7069661242543034	1.439915751292747	-0.2306278270990582	-0.06440085803832525	-0.4363244724803261	1.161120369919927	1.161120369919923	-0.02991551652134946	0.1745043589939993	0.2923887937113105	0.0632889332553481	0.03149073550048044	0.006577627843220851	0.04130235138104748	-0.1369754911320287	0.003066187243100923	-0.02396938994835271	-0.0004518908266511982	-0.130331452822062	-0.130331452822062	0.007639014145220687	-6.045998913382656e-05	-0.02908978074618535	-0.004127516955439753	-0.3278956428014869	0.01025420618455791	0.01228702036850028	-0.3977693726496088	0.05216189377517354	0.001795083453590956	0.323471840867085	-2.969511321120354	-31.64351553231178	-3.873977441720407	0.06445526471963176	14.20056935791436	-782.4308527815224	55.28993606068899	1.663528267314247	0.1934783117976965	1.419822388595477	-5.130434293582834	0.05368519610804112	-0.6559910687870555	-0.03785755490422797	-4.284199632598145	-4.284199632598157	0.4482009241818397	0.01283700075822665	-0.9785429591599486	-0.2103203971777543	1.462970899655496e-09	5.145554984105563e-10	2.082247156595762e-08	1.849266441890203e-08	2.095753780378163e-09	-9.193193302096443e-09	1.680174398258423e-08
1.03	-0.3823586124460397	-0.04088528022479983	0.7074500196981179	1.438290220791678	-0.2305944007979919	-0.06467272273608343	-0.4363292511448411	1.15960291165798	1.159602911657976	-0.02981629263738806	0.1745039591967149	0.2920490695141673	0.06323727474653172	0.04796633008629166	0.008553014903962368	0.05547797238273152	-0.1881506365240078	0.003621337319164575	-0.03039821359508763	-0.000421179281999339	-0.1731758826141313	-0.1731758826141322	0.0122130921811735	-2.640498435728215e-05	-0.03884499124830014	-0.00619774640386931	-0.3282515663843948	0.01033531507340838	0.01230662515551619	-0.3973961125777965	0.05224280104936407	0.001764161138597746	0.3239684769011207	-3.029532585219746	-31.62890543668578	-3.878549683645672	0.05798904227653261	14.00358175474975	-782.7452931711778	55.26225108334105	1.638768209526917	0.2020122010250569	1.416614621940371	-5.114058148550249	0.0567745403940975	-0.6355277317293309	0.03593492829700495	-4.286917527889501	-4.286917527889482	0.4631140976001403	-0.002340640029732777	-0.972501123739123	-0.2044015646481055	2.073236099451421e-09	-7.441236539554086e-11	2.495387843631379e-08	2.415953724431112e-08	4.278097700756102e-09	-1.28111054968743e-08	2.066814585101046e-08
1.04	-0.3817967056154363	-0.04078946589519286	0.7080757078851464	1.43615233813938	-0.2305553540707574	-0.06500871561413138	-0.43633124281008	1.157656538523038	1.157656538523034	-0.02967110740220762	0.1745036938714049	0.2916120950064025	0.06316510847403656	0.06440965088459732	0.01062613387721086	0.06966090002385666	-0.2394459213777789	0.004190272476748905	-0.03679502600633097	0.0001055090285365773	-0.2161144274213277	-0.2161144274213275	0.01683128438905192	-3.356559426459201e-05	-0.04853984287049012	-0.008229069691200828	-0.3286074899672347	0.01041642396225886	0.0123262299425319	-0.3970228525059841	0.05232370832355461	0.001733238823604532	0.3244651129351565	-3.107384101562595	-31.62332883450336	-3.881630949304042	0.04777531414681324	13.82139452236112	-783.2013699447514	55.25041147092166	1.657073509813141	0.2130246942990925	1.421283716483697	-5.154462185941212	0.05644221240995841	-0.649588821689096	0.06133779827258297	-4.303022635623567	-4.30302263562355	0.4570237585669641	0.004593877821475714	-0.9664711831749855	-0.2025391649581462	2.315435270236911e-09	2.265764392834999e-10	3.20353626382706e-08	2.999113922497188e-08	4.213175082778444e-09	-1.484151720813399e-08	2.597250391420903e-08
1.05	-0.3810710013434019	-0.04067235689613889	0.708843163955731	1.433501412585961	-0.2305105836236246	-0.0654085225968989	-0.4363244322696652	1.155280410708875	1.155280410708878	-0.02947948407689185	0.1745032126840983	0.2910785333933041	0.06307279570877566	0.08067711664303238	0.01281957678667071	0.08382164923456181	-0.2907070953017713	0.004762934193426551	-0.04316127958059982	0.001446843985516824	-0.2591168814915247	-0.2591168814915238	0.02150423598493452	-6.406304621303774e-05	-0.05815637200596371	-0.01022938047410869	-0.3291350275765049	0.0104951491096436	0.01235265798047138	-0.3963468404083684	0.05237181725131221	0.001721590854376599	0.3252387111930633	-3.203707114050979	-31.61794295963403	-3.871628445415194	0.03005430733334765	13.52824554378174	-783.5921473220316	55.23144658101678	1.603471320222387	0.2260915314724759	1.412167410118236	-5.107130030334603	0.05755322340686884	-0.629380407390876	0.1990680840733443	-4.299719216347019	-4.299719216346918	0.4740645874121518	-0.007072134181677609	-0.9568292879198355	-0.1981510167918442	2.546132377615827e-09	5.553763898526958e-10	3.920903675683993e-08	3.582788899173425e-08	4.078025385477185e-09	-1.682231952928374e-08	3.132179810849422e-08
1.06	-0.3801842447715104	-0.04053259597954972	0.7097519668957734	1.43033883828636	-0.2304601115449031	-0.06587183947182802	-0.4362985010317479	1.152474085869286	1.152474085869293	-0.02924080449015471	0.1745023864067766	0.2904492893870139	0.06296060503931873	0.09662011085602708	0.01515651738425047	0.09793027391543886	-0.3417756706140177	0.005330598794512306	-0.0494970044386726	0.003929648529000593	-0.302153832506892	-0.3021538325068904	0.02624253667334693	-0.0001025835973155103	-0.06767632150888891	-0.01220465053040754	-0.3296625651857751	0.01057387425703135	0.01237908601841084	-0.3956708283107527	0.05241992617906982	0.001709942885148668	0.32601230945097	-3.319270624940829	-31.62162723082479	-3.860025948638895	0.008436563442390427	13.24804309886523	-784.1264909921475	55.22896406378452	1.592179200725069	0.2417242319228504	1.41085881051797	-5.115942463592003	0.05544278929158084	-0.6434830784498831	0.2896317155732873	-4.309922024657613	-4.309922024657633	0.4700935770729241	0.002989257989960342	-0.9471552566653056	-0.1975310196364907	2.940445897677e-09	1.473758656259279e-09	4.499379230600403e-08	4.205599141799132e-08	3.01464115758309e-09	-1.868238178933231e-08	3.627903939181108e-08
1.07	-0.3791397909869265	-0.04036874602374221	0.7108015255419073	1.426666757231226	-0.230404010417862	-0.06639837068749148	-0.4362419336653864	1.14923728119384	1.149237281193833	-0.02895439068826899	0.1745011802202986	0.2897252768749373	0.06282874181773171	0.1122019622121439	0.01763763795246289	0.1119653635456276	-0.3925830937103985	0.005887713253586604	-0.05580400953625732	0.00758892644760558	-0.345206645117648	-0.3452066451176478	0.03105263194034445	-0.0001380164970508052	-0.07711511702762823	-0.01416665567041672	-0.3298299192245903	0.01061288043838149	0.01241649824744166	-0.3948486971616036	0.0526108456122565	0.001679951643742646	0.3265263409190867	-3.454968407761237	-31.55785319236622	-3.842599590824623	-0.01636996416123926	12.93144886127385	-784.2809035991581	55.21826075670801	1.530887005207769	0.2549309601929586	1.397416140994718	-5.054524187429051	0.05556865059592532	-0.6235250320425337	0.4348410856480471	-4.302892933977918	-4.302892933978109	0.4883356735360836	-0.006703086683091297	-0.9405840286935208	-0.195320661738243	3.343462418412762e-09	2.423501684146578e-09	5.070466920785932e-08	4.830491047507258e-08	1.901882752529794e-09	-2.053602170570528e-08	4.121542679688496e-08
